<svg width="548" height="262" viewBox="0 0 548 262" fill="none" xmlns="http://www.w3.org/2000/svg">
<g filter="url(#filter0_d_122_4714)">
<circle cx="87.2" cy="72.4001" r="20.8" fill="white" fill-opacity="0.2"/>
<path d="M45.6666 72.7837C45.041 72.7837 44.5333 73.2915 44.5333 73.9171C44.5333 74.5427 45.041 75.0504 45.6666 75.0504C46.2922 75.0504 46.8 74.5426 46.8 73.917C46.8 73.2914 46.2922 72.7837 45.6666 72.7837Z" fill="#00FFFF"/>
<path d="M45.6666 81.8501C45.041 81.8501 44.5333 82.3579 44.5333 82.9835C44.5333 83.6091 45.041 84.1168 45.6666 84.1168C46.2922 84.1168 46.8 83.6091 46.8 82.9835C46.8 82.3579 46.2922 81.8501 45.6666 81.8501Z" fill="#00FFFF"/>
<path d="M50.2 65.9834C50.8256 65.9834 51.3334 65.4757 51.3334 64.841V53.5077C51.3334 51.6331 52.8588 50.1077 54.7334 50.1077H63.3308L62.9999 50.4386C62.5579 50.8806 62.5579 51.5992 62.9999 52.0412C63.4419 52.4832 64.1604 52.4832 64.6024 52.0412L66.8623 49.7814C66.8849 49.7587 66.9076 49.7338 66.9303 49.7088C67.0776 49.5342 67.166 49.3258 67.1909 49.1104C67.1977 49.0446 67.1999 48.9766 67.1955 48.911C67.1796 48.648 67.0708 48.3874 66.8713 48.1834C66.8691 48.1811 66.8691 48.1811 66.8691 48.1811L64.6024 45.9145C64.1604 45.4725 63.4419 45.4725 62.9999 45.9145C62.78 46.1367 62.6689 46.4267 62.6689 46.7169C62.6689 47.0071 62.7777 47.2971 62.9999 47.5193L63.3308 47.8503H54.7334C51.61 47.8503 49.0668 50.3935 49.0668 53.5169V64.8501C49.0667 65.4757 49.5744 65.9834 50.2 65.9834Z" fill="#00FFFF"/>
<path d="M75.1334 81.8501H66.0668C65.4412 81.8501 64.9334 82.3579 64.9334 82.9835C64.9334 83.6091 65.4412 84.1168 66.0668 84.1168H75.1334C75.759 84.1168 76.2668 83.6091 76.2668 82.9835C76.2668 82.3579 75.759 81.8501 75.1334 81.8501Z" fill="#00FFFF"/>
<path d="M91 61.4595C90.3744 61.4595 89.8666 61.9672 89.8666 62.5928V76.1928C89.8666 76.8184 89.3589 77.3262 88.7333 77.3262H86.9358L87.2668 76.9952C87.7088 76.5532 87.7088 75.8347 87.2668 75.3927C86.8248 74.9507 86.1062 74.9507 85.6642 75.3927L83.4044 77.6525C83.3817 77.6751 83.359 77.7001 83.3364 77.7251C83.189 77.8996 83.1006 78.1081 83.0757 78.3235C83.0689 78.3892 83.0667 78.4572 83.0712 78.5229C83.087 78.7859 83.1958 79.0465 83.3953 79.2505C83.3976 79.2527 83.3976 79.2527 83.3976 79.2527L85.6642 81.5194C85.8864 81.7392 86.1765 81.8503 86.4666 81.8503C86.7568 81.8503 87.0469 81.7506 87.2668 81.5285C87.4866 81.3063 87.5978 81.0163 87.5978 80.7261C87.5978 80.4359 87.489 80.1459 87.2668 79.9237L86.9358 79.5927H88.7333C90.6078 79.5927 92.1333 78.0673 92.1333 76.1927V62.5927C92.1334 61.9672 91.6256 61.4595 91 61.4595Z" fill="#00FFFF"/>
<path d="M94.4 46.7166C94.4 39.8418 88.8082 34.25 81.9334 34.25C75.0586 34.25 69.4666 39.8418 69.4666 46.7166C69.4666 53.5914 75.0585 59.1833 81.9333 59.1833C88.8081 59.1833 94.4 53.5914 94.4 46.7166ZM92.1334 46.7166C92.1334 47.6278 90.3948 48.7974 87.455 49.5024C87.5479 48.5798 87.6 47.646 87.6 46.7166C87.6 45.7873 87.5478 44.8534 87.455 43.9309C90.3948 44.6358 92.1334 45.8054 92.1334 46.7166ZM91.3898 42.9426C90.1885 42.3284 88.7106 41.8637 87.1036 41.5464C86.7862 39.9394 86.3216 38.4614 85.7074 37.2602C88.2958 38.296 90.354 40.3542 91.3898 42.9426ZM81.9334 36.5166C82.8446 36.5166 84.0142 38.2552 84.7191 41.195C83.7966 41.1022 82.8626 41.05 81.9334 41.05C81.0041 41.05 80.0702 41.1022 79.1476 41.195C79.8526 38.2552 81.0222 36.5166 81.9334 36.5166ZM71.7334 46.7166C71.7334 45.8054 73.4719 44.6358 76.4118 43.9309C76.3188 44.8534 76.2667 45.7873 76.2667 46.7166C76.2667 47.646 76.3189 48.5798 76.4118 49.5024C73.4718 48.7974 71.7334 47.6278 71.7334 46.7166ZM72.4768 50.4906C73.6782 51.1049 75.156 51.5696 76.763 51.8869C77.0804 53.4939 77.5473 54.9718 78.1593 56.1731C75.5708 55.1374 73.5126 53.077 72.4768 50.4906ZM76.763 41.5464C75.156 41.8638 73.6781 42.3284 72.4768 42.9426C73.5126 40.3541 75.573 38.296 78.1594 37.2601C77.5474 38.4614 77.0804 39.9394 76.763 41.5464ZM81.9334 56.9166C81.0222 56.9166 79.8526 55.1781 79.1476 52.2382C80.0702 52.3312 81.004 52.3833 81.9334 52.3833C82.8627 52.3833 83.7966 52.3311 84.7191 52.2382C84.0142 55.1782 82.8446 56.9166 81.9334 56.9166ZM85.1248 49.9082C84.1366 50.0306 83.0894 50.1167 81.9334 50.1167C80.7774 50.1167 79.7302 50.0306 78.7419 49.9082C78.6195 48.9199 78.5334 47.8727 78.5334 46.7167C78.5334 45.5607 78.6195 44.5135 78.7419 43.5253C79.7302 43.4029 80.7774 43.3167 81.9334 43.3167C83.0894 43.3167 84.1366 43.4029 85.1248 43.5253C85.2472 44.5135 85.3334 45.5607 85.3334 46.7167C85.3334 47.8727 85.2472 48.9198 85.1248 49.9082ZM85.7074 56.1732C86.3216 54.9718 86.7863 53.494 87.1036 51.887C88.7106 51.5696 90.1886 51.1027 91.3898 50.4907C90.354 53.077 88.2958 55.1374 85.7074 56.1732Z" fill="#00FFFF"/>
<path d="M77.4 68.25H43.4C41.5254 68.25 40 69.7754 40 71.65V76.1834C40 77.056 40.34 77.847 40.884 78.45C40.34 79.053 40 79.844 40 80.7166V85.25C40 87.1246 41.5254 88.65 43.4 88.65H77.4C79.2746 88.65 80.8 87.1246 80.8 85.25V80.7166C80.8 79.844 80.46 79.0529 79.916 78.45C80.46 77.847 80.8 77.056 80.8 76.1834V71.65C80.8 69.7754 79.2746 68.25 77.4 68.25ZM78.5334 85.25C78.5334 85.8756 78.0256 86.3834 77.4 86.3834H43.4C42.7744 86.3834 42.2666 85.8756 42.2666 85.25V80.7166C42.2666 80.091 42.7744 79.5833 43.4 79.5833H77.4C78.0256 79.5833 78.5334 80.091 78.5334 80.7166V85.25ZM78.5334 76.1834C78.5334 76.809 78.0256 77.3167 77.4 77.3167H43.4C42.7744 77.3167 42.2666 76.809 42.2666 76.1834V71.65C42.2666 71.0244 42.7744 70.5166 43.4 70.5166H77.4C78.0256 70.5166 78.5334 71.0244 78.5334 71.65V76.1834Z" fill="#00FFFF"/>
<path d="M75.1334 72.7837H66.0668C65.4412 72.7837 64.9334 73.2915 64.9334 73.9171C64.9334 74.5427 65.4412 75.0504 66.0668 75.0504H75.1334C75.759 75.0504 76.2668 74.5427 76.2668 73.9171C76.2667 73.2914 75.759 72.7837 75.1334 72.7837Z" fill="#00FFFF"/>
<path d="M41.7216 150H52.571V147.349H44.8835V132.545H41.7216V150ZM60.8892 150.256C64.7244 150.256 67.1619 147.554 67.1619 143.506C67.1619 139.449 64.7244 136.739 60.8892 136.739C57.054 136.739 54.6165 139.449 54.6165 143.506C54.6165 147.554 57.054 150.256 60.8892 150.256ZM60.9062 147.784C58.7841 147.784 57.7443 145.892 57.7443 143.497C57.7443 141.102 58.7841 139.185 60.9062 139.185C62.9943 139.185 64.0341 141.102 64.0341 143.497C64.0341 145.892 62.9943 147.784 60.9062 147.784ZM69.7805 150H72.8658V142.304C72.8658 140.642 74.1186 139.466 75.8146 139.466C76.3345 139.466 76.9822 139.56 77.2464 139.645V136.807C76.9652 136.756 76.4794 136.722 76.1385 136.722C74.6385 136.722 73.3857 137.574 72.9084 139.091H72.772V136.909H69.7805V150ZM84.5526 150.256C87.6037 150.256 89.7003 148.764 90.2457 146.489L87.3651 146.165C86.9474 147.273 85.9247 147.852 84.5952 147.852C82.6009 147.852 81.2798 146.54 81.2543 144.298H90.3736V143.352C90.3736 138.759 87.6122 136.739 84.3906 136.739C80.6406 136.739 78.1946 139.491 78.1946 143.531C78.1946 147.639 80.6065 150.256 84.5526 150.256ZM81.2628 142.219C81.3565 140.548 82.5923 139.142 84.4332 139.142C86.206 139.142 87.3991 140.438 87.4162 142.219H81.2628ZM92.9837 150H96.0689V142.04C96.0689 140.429 97.1428 139.338 98.4723 139.338C99.7763 139.338 100.671 140.216 100.671 141.562V150H103.697V141.835C103.697 140.361 104.575 139.338 106.066 139.338C107.31 139.338 108.299 140.071 108.299 141.69V150H111.393V141.213C111.393 138.29 109.705 136.739 107.302 136.739C105.401 136.739 103.952 137.676 103.373 139.134H103.237C102.734 137.651 101.464 136.739 99.6996 136.739C97.9439 136.739 96.6314 137.642 96.0859 139.134H95.9325V136.909H92.9837V150ZM120.476 150H123.561V136.909H120.476V150ZM122.027 135.051C123.007 135.051 123.808 134.301 123.808 133.381C123.808 132.452 123.007 131.702 122.027 131.702C121.038 131.702 120.237 132.452 120.237 133.381C120.237 134.301 121.038 135.051 122.027 135.051ZM126.734 154.909H129.819V147.938H129.947C130.433 148.892 131.447 150.23 133.697 150.23C136.782 150.23 139.092 147.784 139.092 143.472C139.092 139.108 136.714 136.739 133.688 136.739C131.379 136.739 130.415 138.128 129.947 139.074H129.768V136.909H126.734V154.909ZM129.759 143.455C129.759 140.915 130.85 139.27 132.836 139.27C134.89 139.27 135.947 141.017 135.947 143.455C135.947 145.909 134.873 147.699 132.836 147.699C130.867 147.699 129.759 145.994 129.759 143.455ZM152.08 140.369C151.654 138.153 149.881 136.739 146.813 136.739C143.66 136.739 141.512 138.29 141.521 140.71C141.512 142.619 142.688 143.881 145.202 144.401L147.435 144.869C148.637 145.134 149.2 145.619 149.2 146.361C149.2 147.256 148.228 147.929 146.762 147.929C145.347 147.929 144.427 147.315 144.163 146.139L141.154 146.429C141.538 148.832 143.558 150.256 146.771 150.256C150.043 150.256 152.353 148.56 152.362 146.08C152.353 144.213 151.151 143.071 148.68 142.534L146.447 142.057C145.117 141.759 144.589 141.298 144.597 140.54C144.589 139.653 145.569 139.04 146.856 139.04C148.279 139.04 149.029 139.815 149.268 140.676L152.08 140.369ZM163.249 144.494C163.249 146.489 161.826 147.477 160.462 147.477C158.979 147.477 157.991 146.429 157.991 144.767V136.909H154.906V145.244C154.906 148.389 156.695 150.17 159.269 150.17C161.229 150.17 162.61 149.139 163.207 147.673H163.343V150H166.335V136.909H163.249V144.494ZM169.507 150H172.592V142.04C172.592 140.429 173.666 139.338 174.996 139.338C176.3 139.338 177.195 140.216 177.195 141.562V150H180.22V141.835C180.22 140.361 181.098 139.338 182.589 139.338C183.834 139.338 184.822 140.071 184.822 141.69V150H187.916V141.213C187.916 138.29 186.229 136.739 183.825 136.739C181.925 136.739 180.476 137.676 179.896 139.134H179.76C179.257 137.651 177.987 136.739 176.223 136.739C174.467 136.739 173.155 137.642 172.609 139.134H172.456V136.909H169.507V150ZM201.857 150.23C204.107 150.23 205.121 148.892 205.607 147.938H205.795V150H208.829V132.545H205.735V139.074H205.607C205.138 138.128 204.175 136.739 201.866 136.739C198.84 136.739 196.462 139.108 196.462 143.472C196.462 147.784 198.772 150.23 201.857 150.23ZM202.718 147.699C200.681 147.699 199.607 145.909 199.607 143.455C199.607 141.017 200.664 139.27 202.718 139.27C204.704 139.27 205.795 140.915 205.795 143.455C205.795 145.994 204.687 147.699 202.718 147.699ZM217.827 150.256C221.662 150.256 224.099 147.554 224.099 143.506C224.099 139.449 221.662 136.739 217.827 136.739C213.991 136.739 211.554 139.449 211.554 143.506C211.554 147.554 213.991 150.256 217.827 150.256ZM217.844 147.784C215.722 147.784 214.682 145.892 214.682 143.497C214.682 141.102 215.722 139.185 217.844 139.185C219.932 139.185 220.972 141.102 220.972 143.497C220.972 145.892 219.932 147.784 217.844 147.784ZM229.803 132.545H226.718V150H229.803V132.545ZM238.686 150.256C242.521 150.256 244.959 147.554 244.959 143.506C244.959 139.449 242.521 136.739 238.686 136.739C234.851 136.739 232.413 139.449 232.413 143.506C232.413 147.554 234.851 150.256 238.686 150.256ZM238.703 147.784C236.581 147.784 235.541 145.892 235.541 143.497C235.541 141.102 236.581 139.185 238.703 139.185C240.791 139.185 241.831 141.102 241.831 143.497C241.831 145.892 240.791 147.784 238.703 147.784ZM247.577 150H250.663V142.304C250.663 140.642 251.915 139.466 253.612 139.466C254.131 139.466 254.779 139.56 255.043 139.645V136.807C254.762 136.756 254.276 136.722 253.935 136.722C252.435 136.722 251.183 137.574 250.705 139.091H250.569V136.909H247.577V150Z" fill="#DCE4EE"/>
<path d="M42.688 191.816H46.592V193H41.232V181.848H42.688V191.816ZM51.9623 193.144C51.1409 193.144 50.3943 192.957 49.7223 192.584C49.0609 192.211 48.5383 191.683 48.1543 191C47.7809 190.307 47.5943 189.507 47.5943 188.6C47.5943 187.704 47.7863 186.915 48.1703 186.232C48.5649 185.539 49.0983 185.011 49.7703 184.648C50.4423 184.275 51.1943 184.088 52.0263 184.088C52.8583 184.088 53.6103 184.275 54.2823 184.648C54.9543 185.011 55.4823 185.533 55.8663 186.216C56.2609 186.899 56.4583 187.693 56.4583 188.6C56.4583 189.507 56.2556 190.307 55.8503 191C55.4556 191.683 54.9169 192.211 54.2343 192.584C53.5516 192.957 52.7943 193.144 51.9623 193.144ZM51.9623 191.864C52.4849 191.864 52.9756 191.741 53.4343 191.496C53.8929 191.251 54.2609 190.883 54.5383 190.392C54.8263 189.901 54.9703 189.304 54.9703 188.6C54.9703 187.896 54.8316 187.299 54.5543 186.808C54.2769 186.317 53.9143 185.955 53.4663 185.72C53.0183 185.475 52.5329 185.352 52.0103 185.352C51.4769 185.352 50.9863 185.475 50.5383 185.72C50.1009 185.955 49.7489 186.317 49.4823 186.808C49.2156 187.299 49.0823 187.896 49.0823 188.6C49.0823 189.315 49.2103 189.917 49.4663 190.408C49.7329 190.899 50.0849 191.267 50.5223 191.512C50.9596 191.747 51.4396 191.864 51.9623 191.864ZM59.8286 185.656C60.0846 185.155 60.4473 184.765 60.9166 184.488C61.3966 184.211 61.978 184.072 62.6606 184.072V185.576H62.2766C60.6446 185.576 59.8286 186.461 59.8286 188.232V193H58.3726V184.232H59.8286V185.656ZM72.3414 188.28C72.3414 188.557 72.3254 188.851 72.2934 189.16H65.2854C65.3387 190.024 65.632 190.701 66.1654 191.192C66.7094 191.672 67.3654 191.912 68.1334 191.912C68.7627 191.912 69.2854 191.768 69.7014 191.48C70.128 191.181 70.4267 190.787 70.5974 190.296H72.1654C71.9307 191.139 71.4614 191.827 70.7574 192.36C70.0534 192.883 69.1787 193.144 68.1334 193.144C67.3014 193.144 66.5547 192.957 65.8934 192.584C65.2427 192.211 64.7307 191.683 64.3574 191C63.984 190.307 63.7974 189.507 63.7974 188.6C63.7974 187.693 63.9787 186.899 64.3414 186.216C64.704 185.533 65.2107 185.011 65.8614 184.648C66.5227 184.275 67.28 184.088 68.1334 184.088C68.9654 184.088 69.7014 184.269 70.3414 184.632C70.9814 184.995 71.472 185.496 71.8134 186.136C72.1654 186.765 72.3414 187.48 72.3414 188.28ZM70.8374 187.976C70.8374 187.421 70.7147 186.947 70.4694 186.552C70.224 186.147 69.888 185.843 69.4614 185.64C69.0454 185.427 68.5814 185.32 68.0694 185.32C67.3334 185.32 66.704 185.555 66.1814 186.024C65.6694 186.493 65.376 187.144 65.3014 187.976H70.8374ZM84.8073 184.072C85.4899 184.072 86.0979 184.216 86.6313 184.504C87.1646 184.781 87.5859 185.203 87.8953 185.768C88.2046 186.333 88.3593 187.021 88.3593 187.832V193H86.9193V188.04C86.9193 187.165 86.7006 186.499 86.2633 186.04C85.8366 185.571 85.2553 185.336 84.5193 185.336C83.7619 185.336 83.1593 185.581 82.7113 186.072C82.2633 186.552 82.0393 187.251 82.0393 188.168V193H80.5993V188.04C80.5993 187.165 80.3806 186.499 79.9433 186.04C79.5166 185.571 78.9353 185.336 78.1993 185.336C77.4419 185.336 76.8393 185.581 76.3913 186.072C75.9433 186.552 75.7193 187.251 75.7193 188.168V193H74.2633V184.232H75.7193V185.496C76.0073 185.037 76.3913 184.685 76.8713 184.44C77.3619 184.195 77.9006 184.072 78.4873 184.072C79.2233 184.072 79.8739 184.237 80.4393 184.568C81.0046 184.899 81.4259 185.384 81.7033 186.024C81.9486 185.405 82.3539 184.925 82.9193 184.584C83.4846 184.243 84.1139 184.072 84.8073 184.072ZM95.7653 182.808C95.4879 182.808 95.2533 182.712 95.0613 182.52C94.8693 182.328 94.7733 182.093 94.7733 181.816C94.7733 181.539 94.8693 181.304 95.0613 181.112C95.2533 180.92 95.4879 180.824 95.7653 180.824C96.0319 180.824 96.2559 180.92 96.4373 181.112C96.6293 181.304 96.7253 181.539 96.7253 181.816C96.7253 182.093 96.6293 182.328 96.4373 182.52C96.2559 182.712 96.0319 182.808 95.7653 182.808ZM96.4693 184.232V193H95.0133V184.232H96.4693ZM100.407 185.848C100.695 185.347 101.121 184.931 101.687 184.6C102.263 184.259 102.929 184.088 103.687 184.088C104.465 184.088 105.169 184.275 105.799 184.648C106.439 185.021 106.94 185.549 107.303 186.232C107.665 186.904 107.847 187.688 107.847 188.584C107.847 189.469 107.665 190.259 107.303 190.952C106.94 191.645 106.439 192.184 105.799 192.568C105.169 192.952 104.465 193.144 103.687 193.144C102.94 193.144 102.279 192.979 101.703 192.648C101.137 192.307 100.705 191.885 100.407 191.384V197.16H98.9508V184.232H100.407V185.848ZM106.359 188.584C106.359 187.923 106.225 187.347 105.959 186.856C105.692 186.365 105.329 185.992 104.871 185.736C104.423 185.48 103.927 185.352 103.383 185.352C102.849 185.352 102.353 185.485 101.895 185.752C101.447 186.008 101.084 186.387 100.807 186.888C100.54 187.379 100.407 187.949 100.407 188.6C100.407 189.261 100.54 189.843 100.807 190.344C101.084 190.835 101.447 191.213 101.895 191.48C102.353 191.736 102.849 191.864 103.383 191.864C103.927 191.864 104.423 191.736 104.871 191.48C105.329 191.213 105.692 190.835 105.959 190.344C106.225 189.843 106.359 189.256 106.359 188.584ZM112.867 193.144C112.195 193.144 111.593 193.032 111.059 192.808C110.526 192.573 110.105 192.253 109.795 191.848C109.486 191.432 109.315 190.957 109.283 190.424H110.787C110.83 190.861 111.033 191.219 111.395 191.496C111.769 191.773 112.254 191.912 112.851 191.912C113.406 191.912 113.843 191.789 114.163 191.544C114.483 191.299 114.643 190.989 114.643 190.616C114.643 190.232 114.473 189.949 114.131 189.768C113.79 189.576 113.262 189.389 112.547 189.208C111.897 189.037 111.363 188.867 110.947 188.696C110.542 188.515 110.19 188.253 109.891 187.912C109.603 187.56 109.459 187.101 109.459 186.536C109.459 186.088 109.593 185.677 109.859 185.304C110.126 184.931 110.505 184.637 110.995 184.424C111.486 184.2 112.046 184.088 112.675 184.088C113.646 184.088 114.43 184.333 115.027 184.824C115.625 185.315 115.945 185.987 115.987 186.84H114.531C114.499 186.381 114.313 186.013 113.971 185.736C113.641 185.459 113.193 185.32 112.627 185.32C112.105 185.32 111.689 185.432 111.379 185.656C111.07 185.88 110.915 186.173 110.915 186.536C110.915 186.824 111.006 187.064 111.187 187.256C111.379 187.437 111.614 187.587 111.891 187.704C112.179 187.811 112.574 187.933 113.075 188.072C113.705 188.243 114.217 188.413 114.611 188.584C115.006 188.744 115.342 188.989 115.619 189.32C115.907 189.651 116.057 190.083 116.067 190.616C116.067 191.096 115.934 191.528 115.667 191.912C115.401 192.296 115.022 192.6 114.531 192.824C114.051 193.037 113.497 193.144 112.867 193.144ZM125.899 184.232V193H124.443V191.704C124.165 192.152 123.776 192.504 123.275 192.76C122.784 193.005 122.24 193.128 121.643 193.128C120.96 193.128 120.347 192.989 119.803 192.712C119.259 192.424 118.827 191.997 118.507 191.432C118.197 190.867 118.043 190.179 118.043 189.368V184.232H119.483V189.176C119.483 190.04 119.701 190.707 120.139 191.176C120.576 191.635 121.173 191.864 121.931 191.864C122.709 191.864 123.323 191.624 123.771 191.144C124.219 190.664 124.443 189.965 124.443 189.048V184.232H125.899ZM138.901 184.072C139.584 184.072 140.192 184.216 140.725 184.504C141.258 184.781 141.68 185.203 141.989 185.768C142.298 186.333 142.453 187.021 142.453 187.832V193H141.013V188.04C141.013 187.165 140.794 186.499 140.357 186.04C139.93 185.571 139.349 185.336 138.613 185.336C137.856 185.336 137.253 185.581 136.805 186.072C136.357 186.552 136.133 187.251 136.133 188.168V193H134.693V188.04C134.693 187.165 134.474 186.499 134.037 186.04C133.61 185.571 133.029 185.336 132.293 185.336C131.536 185.336 130.933 185.581 130.485 186.072C130.037 186.552 129.813 187.251 129.813 188.168V193H128.357V184.232H129.813V185.496C130.101 185.037 130.485 184.685 130.965 184.44C131.456 184.195 131.994 184.072 132.581 184.072C133.317 184.072 133.968 184.237 134.533 184.568C135.098 184.899 135.52 185.384 135.797 186.024C136.042 185.405 136.448 184.925 137.013 184.584C137.578 184.243 138.208 184.072 138.901 184.072ZM148.563 188.584C148.563 187.688 148.744 186.904 149.107 186.232C149.47 185.549 149.966 185.021 150.595 184.648C151.235 184.275 151.95 184.088 152.739 184.088C153.422 184.088 154.056 184.248 154.643 184.568C155.23 184.877 155.678 185.288 155.987 185.8V181.16H157.459V193H155.987V191.352C155.699 191.875 155.272 192.307 154.707 192.648C154.142 192.979 153.48 193.144 152.723 193.144C151.944 193.144 151.235 192.952 150.595 192.568C149.966 192.184 149.47 191.645 149.107 190.952C148.744 190.259 148.563 189.469 148.563 188.584ZM155.987 188.6C155.987 187.939 155.854 187.363 155.587 186.872C155.32 186.381 154.958 186.008 154.499 185.752C154.051 185.485 153.555 185.352 153.011 185.352C152.467 185.352 151.971 185.48 151.523 185.736C151.075 185.992 150.718 186.365 150.451 186.856C150.184 187.347 150.051 187.923 150.051 188.584C150.051 189.256 150.184 189.843 150.451 190.344C150.718 190.835 151.075 191.213 151.523 191.48C151.971 191.736 152.467 191.864 153.011 191.864C153.555 191.864 154.051 191.736 154.499 191.48C154.958 191.213 155.32 190.835 155.587 190.344C155.854 189.843 155.987 189.261 155.987 188.6ZM163.744 193.144C162.922 193.144 162.176 192.957 161.504 192.584C160.842 192.211 160.32 191.683 159.936 191C159.562 190.307 159.376 189.507 159.376 188.6C159.376 187.704 159.568 186.915 159.952 186.232C160.346 185.539 160.88 185.011 161.552 184.648C162.224 184.275 162.976 184.088 163.808 184.088C164.64 184.088 165.392 184.275 166.064 184.648C166.736 185.011 167.264 185.533 167.648 186.216C168.042 186.899 168.24 187.693 168.24 188.6C168.24 189.507 168.037 190.307 167.632 191C167.237 191.683 166.698 192.211 166.016 192.584C165.333 192.957 164.576 193.144 163.744 193.144ZM163.744 191.864C164.266 191.864 164.757 191.741 165.216 191.496C165.674 191.251 166.042 190.883 166.32 190.392C166.608 189.901 166.752 189.304 166.752 188.6C166.752 187.896 166.613 187.299 166.336 186.808C166.058 186.317 165.696 185.955 165.248 185.72C164.8 185.475 164.314 185.352 163.792 185.352C163.258 185.352 162.768 185.475 162.32 185.72C161.882 185.955 161.53 186.317 161.264 186.808C160.997 187.299 160.864 187.896 160.864 188.6C160.864 189.315 160.992 189.917 161.248 190.408C161.514 190.899 161.866 191.267 162.304 191.512C162.741 191.747 163.221 191.864 163.744 191.864ZM171.61 181.16V193H170.154V181.16H171.61ZM177.915 193.144C177.094 193.144 176.347 192.957 175.675 192.584C175.014 192.211 174.491 191.683 174.107 191C173.734 190.307 173.547 189.507 173.547 188.6C173.547 187.704 173.739 186.915 174.123 186.232C174.518 185.539 175.051 185.011 175.723 184.648C176.395 184.275 177.147 184.088 177.979 184.088C178.811 184.088 179.563 184.275 180.235 184.648C180.907 185.011 181.435 185.533 181.819 186.216C182.214 186.899 182.411 187.693 182.411 188.6C182.411 189.507 182.209 190.307 181.803 191C181.409 191.683 180.87 192.211 180.187 192.584C179.505 192.957 178.747 193.144 177.915 193.144ZM177.915 191.864C178.438 191.864 178.929 191.741 179.387 191.496C179.846 191.251 180.214 190.883 180.491 190.392C180.779 189.901 180.923 189.304 180.923 188.6C180.923 187.896 180.785 187.299 180.507 186.808C180.23 186.317 179.867 185.955 179.419 185.72C178.971 185.475 178.486 185.352 177.963 185.352C177.43 185.352 176.939 185.475 176.491 185.72C176.054 185.955 175.702 186.317 175.435 186.808C175.169 187.299 175.035 187.896 175.035 188.6C175.035 189.315 175.163 189.917 175.419 190.408C175.686 190.899 176.038 191.267 176.475 191.512C176.913 191.747 177.393 191.864 177.915 191.864ZM185.782 185.656C186.038 185.155 186.4 184.765 186.87 184.488C187.35 184.211 187.931 184.072 188.614 184.072V185.576H188.23C186.598 185.576 185.782 186.461 185.782 188.232V193H184.326V184.232H185.782V185.656ZM197.664 193.144C196.992 193.144 196.389 193.032 195.856 192.808C195.323 192.573 194.901 192.253 194.592 191.848C194.283 191.432 194.112 190.957 194.08 190.424H195.584C195.627 190.861 195.829 191.219 196.192 191.496C196.565 191.773 197.051 191.912 197.648 191.912C198.203 191.912 198.64 191.789 198.96 191.544C199.28 191.299 199.44 190.989 199.44 190.616C199.44 190.232 199.269 189.949 198.928 189.768C198.587 189.576 198.059 189.389 197.344 189.208C196.693 189.037 196.16 188.867 195.744 188.696C195.339 188.515 194.987 188.253 194.688 187.912C194.4 187.56 194.256 187.101 194.256 186.536C194.256 186.088 194.389 185.677 194.656 185.304C194.923 184.931 195.301 184.637 195.792 184.424C196.283 184.2 196.843 184.088 197.472 184.088C198.443 184.088 199.227 184.333 199.824 184.824C200.421 185.315 200.741 185.987 200.784 186.84H199.328C199.296 186.381 199.109 186.013 198.768 185.736C198.437 185.459 197.989 185.32 197.424 185.32C196.901 185.32 196.485 185.432 196.176 185.656C195.867 185.88 195.712 186.173 195.712 186.536C195.712 186.824 195.803 187.064 195.984 187.256C196.176 187.437 196.411 187.587 196.688 187.704C196.976 187.811 197.371 187.933 197.872 188.072C198.501 188.243 199.013 188.413 199.408 188.584C199.803 188.744 200.139 188.989 200.416 189.32C200.704 189.651 200.853 190.083 200.864 190.616C200.864 191.096 200.731 191.528 200.464 191.912C200.197 192.296 199.819 192.6 199.328 192.824C198.848 193.037 198.293 193.144 197.664 193.144ZM203.672 182.808C203.394 182.808 203.16 182.712 202.968 182.52C202.776 182.328 202.68 182.093 202.68 181.816C202.68 181.539 202.776 181.304 202.968 181.112C203.16 180.92 203.394 180.824 203.672 180.824C203.938 180.824 204.162 180.92 204.344 181.112C204.536 181.304 204.632 181.539 204.632 181.816C204.632 182.093 204.536 182.328 204.344 182.52C204.162 182.712 203.938 182.808 203.672 182.808ZM204.376 184.232V193H202.92V184.232H204.376ZM208.633 185.432V190.6C208.633 191.027 208.724 191.331 208.905 191.512C209.086 191.683 209.401 191.768 209.849 191.768H210.921V193H209.609C208.798 193 208.19 192.813 207.785 192.44C207.38 192.067 207.177 191.453 207.177 190.6V185.432H206.041V184.232H207.177V182.024H208.633V184.232H210.921V185.432H208.633ZM216.407 188.584C216.407 187.688 216.588 186.904 216.951 186.232C217.313 185.549 217.809 185.021 218.439 184.648C219.079 184.275 219.788 184.088 220.567 184.088C221.335 184.088 222.001 184.253 222.567 184.584C223.132 184.915 223.553 185.331 223.831 185.832V184.232H225.303V193H223.831V191.368C223.543 191.88 223.111 192.307 222.535 192.648C221.969 192.979 221.308 193.144 220.551 193.144C219.772 193.144 219.068 192.952 218.439 192.568C217.809 192.184 217.313 191.645 216.951 190.952C216.588 190.259 216.407 189.469 216.407 188.584ZM223.831 188.6C223.831 187.939 223.697 187.363 223.431 186.872C223.164 186.381 222.801 186.008 222.343 185.752C221.895 185.485 221.399 185.352 220.855 185.352C220.311 185.352 219.815 185.48 219.367 185.736C218.919 185.992 218.561 186.365 218.295 186.856C218.028 187.347 217.895 187.923 217.895 188.584C217.895 189.256 218.028 189.843 218.295 190.344C218.561 190.835 218.919 191.213 219.367 191.48C219.815 191.736 220.311 191.864 220.855 191.864C221.399 191.864 221.895 191.736 222.343 191.48C222.801 191.213 223.164 190.835 223.431 190.344C223.697 189.843 223.831 189.261 223.831 188.6ZM238.307 184.072C238.99 184.072 239.598 184.216 240.131 184.504C240.665 184.781 241.086 185.203 241.395 185.768C241.705 186.333 241.859 187.021 241.859 187.832V193H240.419V188.04C240.419 187.165 240.201 186.499 239.763 186.04C239.337 185.571 238.755 185.336 238.019 185.336C237.262 185.336 236.659 185.581 236.211 186.072C235.763 186.552 235.539 187.251 235.539 188.168V193H234.099V188.04C234.099 187.165 233.881 186.499 233.443 186.04C233.017 185.571 232.435 185.336 231.699 185.336C230.942 185.336 230.339 185.581 229.891 186.072C229.443 186.552 229.219 187.251 229.219 188.168V193H227.763V184.232H229.219V185.496C229.507 185.037 229.891 184.685 230.371 184.44C230.862 184.195 231.401 184.072 231.987 184.072C232.723 184.072 233.374 184.237 233.939 184.568C234.505 184.899 234.926 185.384 235.203 186.024C235.449 185.405 235.854 184.925 236.419 184.584C236.985 184.243 237.614 184.072 238.307 184.072ZM252.248 188.28C252.248 188.557 252.232 188.851 252.2 189.16H245.192C245.245 190.024 245.538 190.701 246.072 191.192C246.616 191.672 247.272 191.912 248.04 191.912C248.669 191.912 249.192 191.768 249.608 191.48C250.034 191.181 250.333 190.787 250.504 190.296H252.072C251.837 191.139 251.368 191.827 250.664 192.36C249.96 192.883 249.085 193.144 248.04 193.144C247.208 193.144 246.461 192.957 245.8 192.584C245.149 192.211 244.637 191.683 244.264 191C243.89 190.307 243.704 189.507 243.704 188.6C243.704 187.693 243.885 186.899 244.248 186.216C244.61 185.533 245.117 185.011 245.768 184.648C246.429 184.275 247.186 184.088 248.04 184.088C248.872 184.088 249.608 184.269 250.248 184.632C250.888 184.995 251.378 185.496 251.72 186.136C252.072 186.765 252.248 187.48 252.248 188.28ZM250.744 187.976C250.744 187.421 250.621 186.947 250.376 186.552C250.13 186.147 249.794 185.843 249.368 185.64C248.952 185.427 248.488 185.32 247.976 185.32C247.24 185.32 246.61 185.555 246.088 186.024C245.576 186.493 245.282 187.144 245.208 187.976H250.744ZM255.946 185.432V190.6C255.946 191.027 256.036 191.331 256.218 191.512C256.399 191.683 256.714 191.768 257.161 191.768H258.234V193H256.922C256.111 193 255.503 192.813 255.098 192.44C254.692 192.067 254.49 191.453 254.49 190.6V185.432H253.354V184.232H254.49V182.024H255.946V184.232H258.234V185.432H255.946ZM261.502 190.984L259.71 195.288H258.734L259.902 190.984H261.502ZM266.891 188.6C266.891 187.693 267.072 186.904 267.435 186.232C267.798 185.549 268.299 185.021 268.939 184.648C269.59 184.275 270.331 184.088 271.163 184.088C272.24 184.088 273.126 184.349 273.819 184.872C274.523 185.395 274.987 186.12 275.211 187.048H273.643C273.494 186.515 273.2 186.093 272.763 185.784C272.336 185.475 271.803 185.32 271.163 185.32C270.331 185.32 269.659 185.608 269.147 186.184C268.635 186.749 268.379 187.555 268.379 188.6C268.379 189.656 268.635 190.472 269.147 191.048C269.659 191.624 270.331 191.912 271.163 191.912C271.803 191.912 272.336 191.763 272.763 191.464C273.19 191.165 273.483 190.739 273.643 190.184H275.211C274.976 191.08 274.507 191.8 273.803 192.344C273.099 192.877 272.219 193.144 271.163 193.144C270.331 193.144 269.59 192.957 268.939 192.584C268.299 192.211 267.798 191.683 267.435 191C267.072 190.317 266.891 189.517 266.891 188.6ZM280.978 193.144C280.157 193.144 279.41 192.957 278.738 192.584C278.077 192.211 277.554 191.683 277.17 191C276.797 190.307 276.61 189.507 276.61 188.6C276.61 187.704 276.802 186.915 277.186 186.232C277.581 185.539 278.114 185.011 278.786 184.648C279.458 184.275 280.21 184.088 281.042 184.088C281.874 184.088 282.626 184.275 283.298 184.648C283.97 185.011 284.498 185.533 284.882 186.216C285.277 186.899 285.474 187.693 285.474 188.6C285.474 189.507 285.271 190.307 284.866 191C284.471 191.683 283.933 192.211 283.25 192.584C282.567 192.957 281.81 193.144 280.978 193.144ZM280.978 191.864C281.501 191.864 281.991 191.741 282.45 191.496C282.909 191.251 283.277 190.883 283.554 190.392C283.842 189.901 283.986 189.304 283.986 188.6C283.986 187.896 283.847 187.299 283.57 186.808C283.293 186.317 282.93 185.955 282.482 185.72C282.034 185.475 281.549 185.352 281.026 185.352C280.493 185.352 280.002 185.475 279.554 185.72C279.117 185.955 278.765 186.317 278.498 186.808C278.231 187.299 278.098 187.896 278.098 188.6C278.098 189.315 278.226 189.917 278.482 190.408C278.749 190.899 279.101 191.267 279.538 191.512C279.975 191.747 280.455 191.864 280.978 191.864ZM291.66 184.072C292.727 184.072 293.591 184.397 294.252 185.048C294.914 185.688 295.244 186.616 295.244 187.832V193H293.804V188.04C293.804 187.165 293.586 186.499 293.148 186.04C292.711 185.571 292.114 185.336 291.356 185.336C290.588 185.336 289.975 185.576 289.516 186.056C289.068 186.536 288.844 187.235 288.844 188.152V193H287.388V184.232H288.844V185.48C289.132 185.032 289.522 184.685 290.012 184.44C290.514 184.195 291.063 184.072 291.66 184.072ZM300.727 193.144C300.055 193.144 299.452 193.032 298.919 192.808C298.385 192.573 297.964 192.253 297.655 191.848C297.345 191.432 297.175 190.957 297.143 190.424H298.647C298.689 190.861 298.892 191.219 299.255 191.496C299.628 191.773 300.113 191.912 300.711 191.912C301.265 191.912 301.703 191.789 302.023 191.544C302.343 191.299 302.503 190.989 302.503 190.616C302.503 190.232 302.332 189.949 301.991 189.768C301.649 189.576 301.121 189.389 300.407 189.208C299.756 189.037 299.223 188.867 298.807 188.696C298.401 188.515 298.049 188.253 297.751 187.912C297.463 187.56 297.319 187.101 297.319 186.536C297.319 186.088 297.452 185.677 297.719 185.304C297.985 184.931 298.364 184.637 298.855 184.424C299.345 184.2 299.905 184.088 300.535 184.088C301.505 184.088 302.289 184.333 302.887 184.824C303.484 185.315 303.804 185.987 303.847 186.84H302.391C302.359 186.381 302.172 186.013 301.831 185.736C301.5 185.459 301.052 185.32 300.487 185.32C299.964 185.32 299.548 185.432 299.239 185.656C298.929 185.88 298.775 186.173 298.775 186.536C298.775 186.824 298.865 187.064 299.047 187.256C299.239 187.437 299.473 187.587 299.751 187.704C300.039 187.811 300.433 187.933 300.935 188.072C301.564 188.243 302.076 188.413 302.471 188.584C302.865 188.744 303.201 188.989 303.479 189.32C303.767 189.651 303.916 190.083 303.927 190.616C303.927 191.096 303.793 191.528 303.527 191.912C303.26 192.296 302.881 192.6 302.391 192.824C301.911 193.037 301.356 193.144 300.727 193.144ZM313.982 188.28C313.982 188.557 313.966 188.851 313.934 189.16H306.926C306.979 190.024 307.273 190.701 307.806 191.192C308.35 191.672 309.006 191.912 309.774 191.912C310.403 191.912 310.926 191.768 311.342 191.48C311.769 191.181 312.067 190.787 312.238 190.296H313.806C313.571 191.139 313.102 191.827 312.398 192.36C311.694 192.883 310.819 193.144 309.774 193.144C308.942 193.144 308.195 192.957 307.534 192.584C306.883 192.211 306.371 191.683 305.998 191C305.625 190.307 305.438 189.507 305.438 188.6C305.438 187.693 305.619 186.899 305.982 186.216C306.345 185.533 306.851 185.011 307.502 184.648C308.163 184.275 308.921 184.088 309.774 184.088C310.606 184.088 311.342 184.269 311.982 184.632C312.622 184.995 313.113 185.496 313.454 186.136C313.806 186.765 313.982 187.48 313.982 188.28ZM312.478 187.976C312.478 187.421 312.355 186.947 312.11 186.552C311.865 186.147 311.529 185.843 311.102 185.64C310.686 185.427 310.222 185.32 309.71 185.32C308.974 185.32 308.345 185.555 307.822 186.024C307.31 186.493 307.017 187.144 306.942 187.976H312.478ZM315.36 188.6C315.36 187.693 315.541 186.904 315.904 186.232C316.267 185.549 316.768 185.021 317.408 184.648C318.059 184.275 318.8 184.088 319.632 184.088C320.709 184.088 321.595 184.349 322.288 184.872C322.992 185.395 323.456 186.12 323.68 187.048H322.112C321.963 186.515 321.669 186.093 321.232 185.784C320.805 185.475 320.272 185.32 319.632 185.32C318.8 185.32 318.128 185.608 317.616 186.184C317.104 186.749 316.848 187.555 316.848 188.6C316.848 189.656 317.104 190.472 317.616 191.048C318.128 191.624 318.8 191.912 319.632 191.912C320.272 191.912 320.805 191.763 321.232 191.464C321.659 191.165 321.952 190.739 322.112 190.184H323.68C323.445 191.08 322.976 191.8 322.272 192.344C321.568 192.877 320.688 193.144 319.632 193.144C318.8 193.144 318.059 192.957 317.408 192.584C316.768 192.211 316.267 191.683 315.904 191C315.541 190.317 315.36 189.517 315.36 188.6ZM327.399 185.432V190.6C327.399 191.027 327.489 191.331 327.671 191.512C327.852 191.683 328.167 191.768 328.615 191.768H329.687V193H328.375C327.564 193 326.956 192.813 326.551 192.44C326.145 192.067 325.943 191.453 325.943 190.6V185.432H324.807V184.232H325.943V182.024H327.399V184.232H329.687V185.432H327.399ZM339.451 188.28C339.451 188.557 339.435 188.851 339.403 189.16H332.395C332.448 190.024 332.741 190.701 333.275 191.192C333.819 191.672 334.475 191.912 335.243 191.912C335.872 191.912 336.395 191.768 336.811 191.48C337.237 191.181 337.536 190.787 337.707 190.296H339.275C339.04 191.139 338.571 191.827 337.867 192.36C337.163 192.883 336.288 193.144 335.243 193.144C334.411 193.144 333.664 192.957 333.003 192.584C332.352 192.211 331.84 191.683 331.467 191C331.093 190.307 330.907 189.507 330.907 188.6C330.907 187.693 331.088 186.899 331.451 186.216C331.813 185.533 332.32 185.011 332.971 184.648C333.632 184.275 334.389 184.088 335.243 184.088C336.075 184.088 336.811 184.269 337.451 184.632C338.091 184.995 338.581 185.496 338.923 186.136C339.275 186.765 339.451 187.48 339.451 188.28ZM337.947 187.976C337.947 187.421 337.824 186.947 337.579 186.552C337.333 186.147 336.997 185.843 336.571 185.64C336.155 185.427 335.691 185.32 335.179 185.32C334.443 185.32 333.813 185.555 333.291 186.024C332.779 186.493 332.485 187.144 332.411 187.976H337.947ZM343.149 185.432V190.6C343.149 191.027 343.239 191.331 343.421 191.512C343.602 191.683 343.917 191.768 344.365 191.768H345.437V193H344.125C343.314 193 342.706 192.813 342.301 192.44C341.895 192.067 341.693 191.453 341.693 190.6V185.432H340.557V184.232H341.693V182.024H343.149V184.232H345.437V185.432H343.149ZM354.977 184.232V193H353.521V191.704C353.243 192.152 352.854 192.504 352.353 192.76C351.862 193.005 351.318 193.128 350.721 193.128C350.038 193.128 349.425 192.989 348.881 192.712C348.337 192.424 347.905 191.997 347.585 191.432C347.275 190.867 347.121 190.179 347.121 189.368V184.232H348.561V189.176C348.561 190.04 348.779 190.707 349.217 191.176C349.654 191.635 350.251 191.864 351.009 191.864C351.787 191.864 352.401 191.624 352.849 191.144C353.297 190.664 353.521 189.965 353.521 189.048V184.232H354.977ZM358.891 185.656C359.147 185.155 359.51 184.765 359.979 184.488C360.459 184.211 361.04 184.072 361.723 184.072V185.576H361.339C359.707 185.576 358.891 186.461 358.891 188.232V193H357.435V184.232H358.891V185.656ZM371.324 193.182C373.097 193.182 374.392 192.295 374.801 190.977L373.506 190.614C373.165 191.523 372.375 191.977 371.324 191.977C369.75 191.977 368.665 190.96 368.602 189.091H374.938V188.523C374.938 185.273 373.006 184.159 371.188 184.159C368.824 184.159 367.256 186.023 367.256 188.705C367.256 191.386 368.801 193.182 371.324 193.182ZM368.602 187.932C368.693 186.574 369.653 185.364 371.188 185.364C372.642 185.364 373.574 186.455 373.574 187.932H368.602ZM378.318 181.364H376.977V193H378.318V181.364ZM380.774 193H382.115V184.273H380.774V193ZM381.456 182.818C381.979 182.818 382.411 182.409 382.411 181.909C382.411 181.409 381.979 181 381.456 181C380.933 181 380.501 181.409 380.501 181.909C380.501 182.409 380.933 182.818 381.456 182.818ZM388.366 184.273H386.503V182.182H385.162V184.273H383.844V185.409H385.162V190.864C385.162 192.386 386.389 193.114 387.526 193.114C388.026 193.114 388.344 193.023 388.526 192.955L388.253 191.75C388.139 191.773 387.957 191.818 387.662 191.818C387.071 191.818 386.503 191.636 386.503 190.5V185.409H388.366V184.273ZM397.452 193.205C398.974 193.205 399.77 192.386 400.043 191.818H400.111V193H401.452V187.25C401.452 184.477 399.338 184.159 398.224 184.159C396.906 184.159 395.406 184.614 394.724 186.205L395.997 186.659C396.293 186.023 396.991 185.341 398.27 185.341C399.503 185.341 400.111 185.994 400.111 187.114V187.159C400.111 187.807 399.452 187.75 397.861 187.955C396.241 188.165 394.474 188.523 394.474 190.523C394.474 192.227 395.793 193.205 397.452 193.205ZM397.656 192C396.588 192 395.815 191.523 395.815 190.591C395.815 189.568 396.747 189.25 397.793 189.114C398.361 189.045 399.884 188.886 400.111 188.614V189.841C400.111 190.932 399.247 192 397.656 192ZM403.899 193H405.24V187.545C405.24 186.267 406.172 185.364 407.217 185.364C408.234 185.364 408.945 186.028 408.945 187.023V193H410.308V187.318C410.308 186.193 411.013 185.364 412.24 185.364C413.195 185.364 414.013 185.869 414.013 187.159V193H415.354V187.159C415.354 185.108 414.251 184.159 412.695 184.159C411.445 184.159 410.53 184.733 410.081 185.636H409.99C409.558 184.705 408.797 184.159 407.649 184.159C406.513 184.159 405.672 184.705 405.308 185.636H405.195V184.273H403.899V193ZM421.464 193.182C423.237 193.182 424.533 192.295 424.942 190.977L423.646 190.614C423.305 191.523 422.516 191.977 421.464 191.977C419.891 191.977 418.805 190.96 418.743 189.091H425.078V188.523C425.078 185.273 423.146 184.159 421.328 184.159C418.964 184.159 417.396 186.023 417.396 188.705C417.396 191.386 418.942 193.182 421.464 193.182ZM418.743 187.932C418.834 186.574 419.794 185.364 421.328 185.364C422.783 185.364 423.714 186.455 423.714 187.932H418.743ZM430.913 184.273H429.05V182.182H427.709V184.273H426.391V185.409H427.709V190.864C427.709 192.386 428.936 193.114 430.072 193.114C430.572 193.114 430.891 193.023 431.072 192.955L430.8 191.75C430.686 191.773 430.504 191.818 430.209 191.818C429.618 191.818 429.05 191.636 429.05 190.5V185.409H430.913V184.273ZM40.688 215.584C40.688 214.688 40.8693 213.904 41.232 213.232C41.5947 212.549 42.0907 212.021 42.72 211.648C43.36 211.275 44.0693 211.088 44.848 211.088C45.616 211.088 46.2827 211.253 46.848 211.584C47.4133 211.915 47.8347 212.331 48.112 212.832V211.232H49.584V220H48.112V218.368C47.824 218.88 47.392 219.307 46.816 219.648C46.2507 219.979 45.5893 220.144 44.832 220.144C44.0533 220.144 43.3493 219.952 42.72 219.568C42.0907 219.184 41.5947 218.645 41.232 217.952C40.8693 217.259 40.688 216.469 40.688 215.584ZM48.112 215.6C48.112 214.939 47.9787 214.363 47.712 213.872C47.4453 213.381 47.0827 213.008 46.624 212.752C46.176 212.485 45.68 212.352 45.136 212.352C44.592 212.352 44.096 212.48 43.648 212.736C43.2 212.992 42.8427 213.365 42.576 213.856C42.3093 214.347 42.176 214.923 42.176 215.584C42.176 216.256 42.3093 216.843 42.576 217.344C42.8427 217.835 43.2 218.213 43.648 218.48C44.096 218.736 44.592 218.864 45.136 218.864C45.68 218.864 46.176 218.736 46.624 218.48C47.0827 218.213 47.4453 217.835 47.712 217.344C47.9787 216.843 48.112 216.261 48.112 215.6ZM51.5005 215.584C51.5005 214.688 51.6818 213.904 52.0445 213.232C52.4072 212.549 52.9032 212.021 53.5325 211.648C54.1725 211.275 54.8872 211.088 55.6765 211.088C56.3592 211.088 56.9938 211.248 57.5805 211.568C58.1672 211.877 58.6152 212.288 58.9245 212.8V208.16H60.3965V220H58.9245V218.352C58.6365 218.875 58.2098 219.307 57.6445 219.648C57.0792 219.979 56.4178 220.144 55.6605 220.144C54.8818 220.144 54.1725 219.952 53.5325 219.568C52.9032 219.184 52.4072 218.645 52.0445 217.952C51.6818 217.259 51.5005 216.469 51.5005 215.584ZM58.9245 215.6C58.9245 214.939 58.7912 214.363 58.5245 213.872C58.2578 213.381 57.8952 213.008 57.4365 212.752C56.9885 212.485 56.4925 212.352 55.9485 212.352C55.4045 212.352 54.9085 212.48 54.4605 212.736C54.0125 212.992 53.6552 213.365 53.3885 213.856C53.1218 214.347 52.9885 214.923 52.9885 215.584C52.9885 216.256 53.1218 216.843 53.3885 217.344C53.6552 217.835 54.0125 218.213 54.4605 218.48C54.9085 218.736 55.4045 218.864 55.9485 218.864C56.4925 218.864 56.9885 218.736 57.4365 218.48C57.8952 218.213 58.2578 217.835 58.5245 217.344C58.7912 216.843 58.9245 216.261 58.9245 215.6ZM63.609 209.808C63.3317 209.808 63.097 209.712 62.905 209.52C62.713 209.328 62.617 209.093 62.617 208.816C62.617 208.539 62.713 208.304 62.905 208.112C63.097 207.92 63.3317 207.824 63.609 207.824C63.8757 207.824 64.0997 207.92 64.281 208.112C64.473 208.304 64.569 208.539 64.569 208.816C64.569 209.093 64.473 209.328 64.281 209.52C64.0997 209.712 63.8757 209.808 63.609 209.808ZM64.313 211.232V220H62.857V211.232H64.313ZM68.2505 212.848C68.5385 212.347 68.9652 211.931 69.5305 211.6C70.1065 211.259 70.7732 211.088 71.5305 211.088C72.3092 211.088 73.0132 211.275 73.6425 211.648C74.2825 212.021 74.7838 212.549 75.1465 213.232C75.5092 213.904 75.6905 214.688 75.6905 215.584C75.6905 216.469 75.5092 217.259 75.1465 217.952C74.7838 218.645 74.2825 219.184 73.6425 219.568C73.0132 219.952 72.3092 220.144 71.5305 220.144C70.7838 220.144 70.1225 219.979 69.5465 219.648C68.9812 219.307 68.5492 218.885 68.2505 218.384V224.16H66.7945V211.232H68.2505V212.848ZM74.2025 215.584C74.2025 214.923 74.0692 214.347 73.8025 213.856C73.5358 213.365 73.1732 212.992 72.7145 212.736C72.2665 212.48 71.7705 212.352 71.2265 212.352C70.6932 212.352 70.1972 212.485 69.7385 212.752C69.2905 213.008 68.9278 213.387 68.6505 213.888C68.3838 214.379 68.2505 214.949 68.2505 215.6C68.2505 216.261 68.3838 216.843 68.6505 217.344C68.9278 217.835 69.2905 218.213 69.7385 218.48C70.1972 218.736 70.6932 218.864 71.2265 218.864C71.7705 218.864 72.2665 218.736 72.7145 218.48C73.1732 218.213 73.5358 217.835 73.8025 217.344C74.0692 216.843 74.2025 216.256 74.2025 215.584ZM78.359 209.808C78.0817 209.808 77.847 209.712 77.655 209.52C77.463 209.328 77.367 209.093 77.367 208.816C77.367 208.539 77.463 208.304 77.655 208.112C77.847 207.92 78.0817 207.824 78.359 207.824C78.6257 207.824 78.8497 207.92 79.031 208.112C79.223 208.304 79.319 208.539 79.319 208.816C79.319 209.093 79.223 209.328 79.031 209.52C78.8497 209.712 78.6257 209.808 78.359 209.808ZM79.063 211.232V220H77.607V211.232H79.063ZM84.6485 220.144C83.9765 220.144 83.3738 220.032 82.8405 219.808C82.3072 219.573 81.8858 219.253 81.5765 218.848C81.2672 218.432 81.0965 217.957 81.0645 217.424H82.5685C82.6112 217.861 82.8138 218.219 83.1765 218.496C83.5498 218.773 84.0352 218.912 84.6325 218.912C85.1872 218.912 85.6245 218.789 85.9445 218.544C86.2645 218.299 86.4245 217.989 86.4245 217.616C86.4245 217.232 86.2538 216.949 85.9125 216.768C85.5712 216.576 85.0432 216.389 84.3285 216.208C83.6778 216.037 83.1445 215.867 82.7285 215.696C82.3232 215.515 81.9712 215.253 81.6725 214.912C81.3845 214.56 81.2405 214.101 81.2405 213.536C81.2405 213.088 81.3738 212.677 81.6405 212.304C81.9072 211.931 82.2858 211.637 82.7765 211.424C83.2672 211.2 83.8272 211.088 84.4565 211.088C85.4272 211.088 86.2112 211.333 86.8085 211.824C87.4058 212.315 87.7258 212.987 87.7685 213.84H86.3125C86.2805 213.381 86.0938 213.013 85.7525 212.736C85.4218 212.459 84.9738 212.32 84.4085 212.32C83.8858 212.32 83.4698 212.432 83.1605 212.656C82.8512 212.88 82.6965 213.173 82.6965 213.536C82.6965 213.824 82.7872 214.064 82.9685 214.256C83.1605 214.437 83.3952 214.587 83.6725 214.704C83.9605 214.811 84.3552 214.933 84.8565 215.072C85.4858 215.243 85.9978 215.413 86.3925 215.584C86.7872 215.744 87.1232 215.989 87.4005 216.32C87.6885 216.651 87.8378 217.083 87.8485 217.616C87.8485 218.096 87.7152 218.528 87.4485 218.912C87.1818 219.296 86.8032 219.6 86.3125 219.824C85.8325 220.037 85.2778 220.144 84.6485 220.144ZM89.3599 215.6C89.3599 214.693 89.5412 213.904 89.9039 213.232C90.2665 212.549 90.7679 212.021 91.4079 211.648C92.0585 211.275 92.7999 211.088 93.6319 211.088C94.7092 211.088 95.5945 211.349 96.2879 211.872C96.9919 212.395 97.4559 213.12 97.6799 214.048H96.1119C95.9625 213.515 95.6692 213.093 95.2319 212.784C94.8052 212.475 94.2719 212.32 93.6319 212.32C92.7999 212.32 92.1279 212.608 91.6159 213.184C91.1039 213.749 90.8479 214.555 90.8479 215.6C90.8479 216.656 91.1039 217.472 91.6159 218.048C92.1279 218.624 92.7999 218.912 93.6319 218.912C94.2719 218.912 94.8052 218.763 95.2319 218.464C95.6585 218.165 95.9519 217.739 96.1119 217.184H97.6799C97.4452 218.08 96.9759 218.8 96.2719 219.344C95.5679 219.877 94.6879 220.144 93.6319 220.144C92.7999 220.144 92.0585 219.957 91.4079 219.584C90.7679 219.211 90.2665 218.683 89.9039 218C89.5412 217.317 89.3599 216.517 89.3599 215.6ZM100.375 209.808C100.097 209.808 99.8626 209.712 99.6706 209.52C99.4786 209.328 99.3826 209.093 99.3826 208.816C99.3826 208.539 99.4786 208.304 99.6706 208.112C99.8626 207.92 100.097 207.824 100.375 207.824C100.641 207.824 100.865 207.92 101.047 208.112C101.239 208.304 101.335 208.539 101.335 208.816C101.335 209.093 101.239 209.328 101.047 209.52C100.865 209.712 100.641 209.808 100.375 209.808ZM101.079 211.232V220H99.6226V211.232H101.079ZM107.832 211.072C108.899 211.072 109.763 211.397 110.424 212.048C111.085 212.688 111.416 213.616 111.416 214.832V220H109.976V215.04C109.976 214.165 109.757 213.499 109.32 213.04C108.883 212.571 108.285 212.336 107.528 212.336C106.76 212.336 106.147 212.576 105.688 213.056C105.24 213.536 105.016 214.235 105.016 215.152V220H103.56V211.232H105.016V212.48C105.304 212.032 105.693 211.685 106.184 211.44C106.685 211.195 107.235 211.072 107.832 211.072ZM117.411 211.088C118.168 211.088 118.829 211.253 119.395 211.584C119.971 211.915 120.397 212.331 120.675 212.832V211.232H122.147V220.192C122.147 220.992 121.976 221.701 121.635 222.32C121.293 222.949 120.803 223.44 120.163 223.792C119.533 224.144 118.797 224.32 117.955 224.32C116.803 224.32 115.843 224.048 115.075 223.504C114.307 222.96 113.853 222.219 113.715 221.28H115.155C115.315 221.813 115.645 222.24 116.147 222.56C116.648 222.891 117.251 223.056 117.955 223.056C118.755 223.056 119.405 222.805 119.907 222.304C120.419 221.803 120.675 221.099 120.675 220.192V218.352C120.387 218.864 119.96 219.291 119.395 219.632C118.829 219.973 118.168 220.144 117.411 220.144C116.632 220.144 115.923 219.952 115.283 219.568C114.653 219.184 114.157 218.645 113.795 217.952C113.432 217.259 113.251 216.469 113.251 215.584C113.251 214.688 113.432 213.904 113.795 213.232C114.157 212.549 114.653 212.021 115.283 211.648C115.923 211.275 116.632 211.088 117.411 211.088ZM120.675 215.6C120.675 214.939 120.541 214.363 120.275 213.872C120.008 213.381 119.645 213.008 119.187 212.752C118.739 212.485 118.243 212.352 117.699 212.352C117.155 212.352 116.659 212.48 116.211 212.736C115.763 212.992 115.405 213.365 115.139 213.856C114.872 214.347 114.739 214.923 114.739 215.584C114.739 216.256 114.872 216.843 115.139 217.344C115.405 217.835 115.763 218.213 116.211 218.48C116.659 218.736 117.155 218.864 117.699 218.864C118.243 218.864 118.739 218.736 119.187 218.48C119.645 218.213 120.008 217.835 120.275 217.344C120.541 216.843 120.675 216.261 120.675 215.6ZM136.873 215.28C136.873 215.557 136.857 215.851 136.825 216.16H129.817C129.87 217.024 130.163 217.701 130.697 218.192C131.241 218.672 131.897 218.912 132.665 218.912C133.294 218.912 133.817 218.768 134.233 218.48C134.659 218.181 134.958 217.787 135.129 217.296H136.697C136.462 218.139 135.993 218.827 135.289 219.36C134.585 219.883 133.71 220.144 132.665 220.144C131.833 220.144 131.086 219.957 130.425 219.584C129.774 219.211 129.262 218.683 128.889 218C128.515 217.307 128.329 216.507 128.329 215.6C128.329 214.693 128.51 213.899 128.873 213.216C129.235 212.533 129.742 212.011 130.393 211.648C131.054 211.275 131.811 211.088 132.665 211.088C133.497 211.088 134.233 211.269 134.873 211.632C135.513 211.995 136.003 212.496 136.345 213.136C136.697 213.765 136.873 214.48 136.873 215.28ZM135.369 214.976C135.369 214.421 135.246 213.947 135.001 213.552C134.755 213.147 134.419 212.843 133.993 212.64C133.577 212.427 133.113 212.32 132.601 212.32C131.865 212.32 131.235 212.555 130.713 213.024C130.201 213.493 129.907 214.144 129.833 214.976H135.369ZM140.251 208.16V220H138.795V208.16H140.251ZM143.484 209.808C143.207 209.808 142.972 209.712 142.78 209.52C142.588 209.328 142.492 209.093 142.492 208.816C142.492 208.539 142.588 208.304 142.78 208.112C142.972 207.92 143.207 207.824 143.484 207.824C143.751 207.824 143.975 207.92 144.156 208.112C144.348 208.304 144.444 208.539 144.444 208.816C144.444 209.093 144.348 209.328 144.156 209.52C143.975 209.712 143.751 209.808 143.484 209.808ZM144.188 211.232V220H142.732V211.232H144.188ZM148.446 212.432V217.6C148.446 218.027 148.536 218.331 148.718 218.512C148.899 218.683 149.214 218.768 149.661 218.768H150.734V220H149.422C148.611 220 148.003 219.813 147.598 219.44C147.192 219.067 146.99 218.453 146.99 217.6V212.432H145.854V211.232H146.99V209.024H148.446V211.232H150.734V212.432H148.446ZM152.962 220.096C152.684 220.096 152.45 220 152.258 219.808C152.066 219.616 151.97 219.381 151.97 219.104C151.97 218.827 152.066 218.592 152.258 218.4C152.45 218.208 152.684 218.112 152.962 218.112C153.228 218.112 153.452 218.208 153.634 218.4C153.826 218.592 153.922 218.827 153.922 219.104C153.922 219.381 153.826 219.616 153.634 219.808C153.452 220 153.228 220.096 152.962 220.096ZM160.3 220H167.118V218.75H161.709V208.364H160.3V220ZM172.663 220.182C175.027 220.182 176.618 218.386 176.618 215.682C176.618 212.955 175.027 211.159 172.663 211.159C170.3 211.159 168.709 212.955 168.709 215.682C168.709 218.386 170.3 220.182 172.663 220.182ZM172.663 218.977C170.868 218.977 170.05 217.432 170.05 215.682C170.05 213.932 170.868 212.364 172.663 212.364C174.459 212.364 175.277 213.932 175.277 215.682C175.277 217.432 174.459 218.977 172.663 218.977ZM178.665 220H180.006V214.477C180.006 213.295 180.938 212.432 182.21 212.432C182.568 212.432 182.938 212.5 183.028 212.523V211.159C182.875 211.148 182.523 211.136 182.324 211.136C181.278 211.136 180.369 211.727 180.051 212.591H179.96V211.273H178.665V220ZM188.011 220.182C189.784 220.182 191.08 219.295 191.489 217.977L190.193 217.614C189.852 218.523 189.062 218.977 188.011 218.977C186.438 218.977 185.352 217.96 185.29 216.091H191.625V215.523C191.625 212.273 189.693 211.159 187.875 211.159C185.511 211.159 183.943 213.023 183.943 215.705C183.943 218.386 185.489 220.182 188.011 220.182ZM185.29 214.932C185.381 213.574 186.341 212.364 187.875 212.364C189.33 212.364 190.261 213.455 190.261 214.932H185.29ZM193.665 220H195.006V214.545C195.006 213.267 195.938 212.364 196.983 212.364C198 212.364 198.71 213.028 198.71 214.023V220H200.074V214.318C200.074 213.193 200.778 212.364 202.006 212.364C202.96 212.364 203.778 212.869 203.778 214.159V220H205.119V214.159C205.119 212.108 204.017 211.159 202.46 211.159C201.21 211.159 200.295 211.733 199.847 212.636H199.756C199.324 211.705 198.562 211.159 197.415 211.159C196.278 211.159 195.438 211.705 195.074 212.636H194.96V211.273H193.665V220ZM212.071 220H213.412V211.273H212.071V220ZM212.753 209.818C213.276 209.818 213.707 209.409 213.707 208.909C213.707 208.409 213.276 208 212.753 208C212.23 208 211.798 208.409 211.798 208.909C211.798 209.409 212.23 209.818 212.753 209.818ZM215.868 223.273H217.209V218.659H217.322C217.618 219.136 218.186 220.182 219.868 220.182C222.05 220.182 223.572 218.432 223.572 215.659C223.572 212.909 222.05 211.159 219.845 211.159C218.141 211.159 217.618 212.205 217.322 212.659H217.163V211.273H215.868V223.273ZM217.186 215.636C217.186 213.682 218.05 212.364 219.686 212.364C221.391 212.364 222.232 213.795 222.232 215.636C222.232 217.5 221.368 218.977 219.686 218.977C218.072 218.977 217.186 217.614 217.186 215.636ZM231.8 213.227C231.379 211.989 230.436 211.159 228.709 211.159C226.868 211.159 225.504 212.205 225.504 213.682C225.504 214.886 226.22 215.693 227.822 216.068L229.277 216.409C230.158 216.614 230.572 217.034 230.572 217.636C230.572 218.386 229.777 219 228.527 219C227.43 219 226.743 218.528 226.504 217.591L225.232 217.909C225.544 219.392 226.766 220.182 228.55 220.182C230.578 220.182 231.959 219.074 231.959 217.568C231.959 216.352 231.197 215.585 229.641 215.205L228.345 214.886C227.311 214.631 226.845 214.284 226.845 213.614C226.845 212.864 227.641 212.318 228.709 212.318C229.879 212.318 230.362 212.966 230.595 213.568L231.8 213.227ZM239.477 216.432C239.477 218.068 238.227 218.818 237.227 218.818C236.114 218.818 235.318 218 235.318 216.727V211.273H233.977V216.818C233.977 219.045 235.159 220.114 236.795 220.114C238.114 220.114 238.977 219.409 239.386 218.523H239.477V220H240.818V211.273H239.477V216.432ZM243.274 220H244.615V214.545C244.615 213.267 245.547 212.364 246.592 212.364C247.609 212.364 248.32 213.028 248.32 214.023V220H249.683V214.318C249.683 213.193 250.388 212.364 251.615 212.364C252.57 212.364 253.388 212.869 253.388 214.159V220H254.729V214.159C254.729 212.108 253.626 211.159 252.07 211.159C250.82 211.159 249.905 211.733 249.456 212.636H249.365C248.933 211.705 248.172 211.159 247.024 211.159C245.888 211.159 245.047 211.705 244.683 212.636H244.57V211.273H243.274V220ZM264.976 220.182C266.658 220.182 267.226 219.136 267.521 218.659H267.68V220H268.976V208.364H267.635V212.659H267.521C267.226 212.205 266.703 211.159 264.999 211.159C262.794 211.159 261.271 212.909 261.271 215.659C261.271 218.432 262.794 220.182 264.976 220.182ZM265.158 218.977C263.476 218.977 262.612 217.5 262.612 215.636C262.612 213.795 263.453 212.364 265.158 212.364C266.794 212.364 267.658 213.682 267.658 215.636C267.658 217.614 266.771 218.977 265.158 218.977ZM275.163 220.182C277.527 220.182 279.118 218.386 279.118 215.682C279.118 212.955 277.527 211.159 275.163 211.159C272.8 211.159 271.209 212.955 271.209 215.682C271.209 218.386 272.8 220.182 275.163 220.182ZM275.163 218.977C273.368 218.977 272.55 217.432 272.55 215.682C272.55 213.932 273.368 212.364 275.163 212.364C276.959 212.364 277.777 213.932 277.777 215.682C277.777 217.432 276.959 218.977 275.163 218.977ZM282.506 208.364H281.165V220H282.506V208.364ZM288.507 220.182C290.871 220.182 292.462 218.386 292.462 215.682C292.462 212.955 290.871 211.159 288.507 211.159C286.143 211.159 284.553 212.955 284.553 215.682C284.553 218.386 286.143 220.182 288.507 220.182ZM288.507 218.977C286.712 218.977 285.893 217.432 285.893 215.682C285.893 213.932 286.712 212.364 288.507 212.364C290.303 212.364 291.121 213.932 291.121 215.682C291.121 217.432 290.303 218.977 288.507 218.977ZM294.509 220H295.849V214.477C295.849 213.295 296.781 212.432 298.054 212.432C298.412 212.432 298.781 212.5 298.872 212.523V211.159C298.719 211.148 298.366 211.136 298.168 211.136C297.122 211.136 296.213 211.727 295.895 212.591H295.804V211.273H294.509V220ZM311.143 213.227C310.723 211.989 309.78 211.159 308.053 211.159C306.212 211.159 304.848 212.205 304.848 213.682C304.848 214.886 305.564 215.693 307.166 216.068L308.621 216.409C309.501 216.614 309.916 217.034 309.916 217.636C309.916 218.386 309.121 219 307.871 219C306.774 219 306.087 218.528 305.848 217.591L304.575 217.909C304.888 219.392 306.109 220.182 307.893 220.182C309.922 220.182 311.303 219.074 311.303 217.568C311.303 216.352 310.541 215.585 308.984 215.205L307.689 214.886C306.655 214.631 306.189 214.284 306.189 213.614C306.189 212.864 306.984 212.318 308.053 212.318C309.223 212.318 309.706 212.966 309.939 213.568L311.143 213.227ZM313.321 220H314.662V211.273H313.321V220ZM314.003 209.818C314.526 209.818 314.957 209.409 314.957 208.909C314.957 208.409 314.526 208 314.003 208C313.48 208 313.048 208.409 313.048 208.909C313.048 209.409 313.48 209.818 314.003 209.818ZM320.913 211.273H319.05V209.182H317.709V211.273H316.391V212.409H317.709V217.864C317.709 219.386 318.936 220.114 320.072 220.114C320.572 220.114 320.891 220.023 321.072 219.955L320.8 218.75C320.686 218.773 320.504 218.818 320.209 218.818C319.618 218.818 319.05 218.636 319.05 217.5V212.409H320.913V211.273ZM329.999 220.205C331.521 220.205 332.317 219.386 332.589 218.818H332.658V220H333.999V214.25C333.999 211.477 331.885 211.159 330.771 211.159C329.453 211.159 327.953 211.614 327.271 213.205L328.544 213.659C328.839 213.023 329.538 212.341 330.817 212.341C332.05 212.341 332.658 212.994 332.658 214.114V214.159C332.658 214.807 331.999 214.75 330.408 214.955C328.788 215.165 327.021 215.523 327.021 217.523C327.021 219.227 328.339 220.205 329.999 220.205ZM330.203 219C329.135 219 328.362 218.523 328.362 217.591C328.362 216.568 329.294 216.25 330.339 216.114C330.908 216.045 332.43 215.886 332.658 215.614V216.841C332.658 217.932 331.794 219 330.203 219ZM336.446 220H337.787V214.545C337.787 213.267 338.719 212.364 339.764 212.364C340.781 212.364 341.491 213.028 341.491 214.023V220H342.855V214.318C342.855 213.193 343.56 212.364 344.787 212.364C345.741 212.364 346.56 212.869 346.56 214.159V220H347.901V214.159C347.901 212.108 346.798 211.159 345.241 211.159C343.991 211.159 343.077 211.733 342.628 212.636H342.537C342.105 211.705 341.344 211.159 340.196 211.159C339.06 211.159 338.219 211.705 337.855 212.636H337.741V211.273H336.446V220ZM354.011 220.182C355.784 220.182 357.08 219.295 357.489 217.977L356.193 217.614C355.852 218.523 355.062 218.977 354.011 218.977C352.438 218.977 351.352 217.96 351.29 216.091H357.625V215.523C357.625 212.273 355.693 211.159 353.875 211.159C351.511 211.159 349.943 213.023 349.943 215.705C349.943 218.386 351.489 220.182 354.011 220.182ZM351.29 214.932C351.381 213.574 352.341 212.364 353.875 212.364C355.33 212.364 356.261 213.455 356.261 214.932H351.29ZM363.46 211.273H361.597V209.182H360.256V211.273H358.938V212.409H360.256V217.864C360.256 219.386 361.483 220.114 362.619 220.114C363.119 220.114 363.438 220.023 363.619 219.955L363.347 218.75C363.233 218.773 363.051 218.818 362.756 218.818C362.165 218.818 361.597 218.636 361.597 217.5V212.409H363.46V211.273ZM373.402 220.182C375.175 220.182 376.47 219.295 376.879 217.977L375.584 217.614C375.243 218.523 374.453 218.977 373.402 218.977C371.828 218.977 370.743 217.96 370.68 216.091H377.016V215.523C377.016 212.273 375.084 211.159 373.266 211.159C370.902 211.159 369.334 213.023 369.334 215.705C369.334 218.386 370.879 220.182 373.402 220.182ZM370.68 214.932C370.771 213.574 371.732 212.364 373.266 212.364C374.72 212.364 375.652 213.455 375.652 214.932H370.68ZM380.396 208.364H379.055V220H380.396V208.364ZM382.852 220H384.193V211.273H382.852V220ZM383.534 209.818C384.057 209.818 384.489 209.409 384.489 208.909C384.489 208.409 384.057 208 383.534 208C383.011 208 382.58 208.409 382.58 208.909C382.58 209.409 383.011 209.818 383.534 209.818ZM390.445 211.273H388.581V209.182H387.24V211.273H385.922V212.409H387.24V217.864C387.24 219.386 388.467 220.114 389.604 220.114C390.104 220.114 390.422 220.023 390.604 219.955L390.331 218.75C390.217 218.773 390.036 218.818 389.74 218.818C389.149 218.818 388.581 218.636 388.581 217.5V212.409H390.445V211.273ZM393.439 220.091C394.001 220.091 394.462 219.631 394.462 219.068C394.462 218.506 394.001 218.045 393.439 218.045C392.876 218.045 392.416 218.506 392.416 219.068C392.416 219.631 392.876 220.091 393.439 220.091Z" fill="#BFBFBF"/>
</g>
<defs>
<filter id="filter0_d_122_4714" x="-30" y="-26" width="608" height="318" filterUnits="userSpaceOnUse" color-interpolation-filters="sRGB">
<feFlood flood-opacity="0" result="BackgroundImageFix"/>
<feColorMatrix in="SourceAlpha" type="matrix" values="0 0 0 0 0 0 0 0 0 0 0 0 0 0 0 0 0 0 127 0" result="hardAlpha"/>
<feOffset dy="4"/>
<feGaussianBlur stdDeviation="15"/>
<feComposite in2="hardAlpha" operator="out"/>
<feColorMatrix type="matrix" values="0 0 0 0 0 0 0 0 0 0 0 0 0 0 0 0 0 0 0.1 0"/>
<feBlend mode="normal" in2="BackgroundImageFix" result="effect1_dropShadow_122_4714"/>
<feBlend mode="normal" in="SourceGraphic" in2="effect1_dropShadow_122_4714" result="shape"/>
</filter>
</defs>
</svg>
