<svg width="94" height="121" viewBox="0 0 94 121" fill="none" xmlns="http://www.w3.org/2000/svg">
<path d="M93.018 39.128C93.018 46.1227 91.4127 52.544 88.202 58.392C84.9913 64.1253 80.0607 68.7693 73.41 72.324C66.7593 75.8787 58.5033 77.656 48.642 77.656H30.41V121H0.997985V0.255996H48.642C58.274 0.255996 66.4153 1.91866 73.066 5.24399C79.7167 8.56933 84.7047 13.156 88.03 19.004C91.3553 24.852 93.018 31.56 93.018 39.128ZM46.406 54.264C52.0247 54.264 56.21 52.9453 58.962 50.308C61.714 47.6707 63.09 43.944 63.09 39.128C63.09 34.312 61.714 30.5853 58.962 27.948C56.21 25.3107 52.0247 23.992 46.406 23.992H30.41V54.264H46.406Z" fill="white" fill-opacity="0.15"/>
</svg>
