<svg width="144" height="40" viewBox="0 0 144 40" fill="none" xmlns="http://www.w3.org/2000/svg">
<path fill-rule="evenodd" clip-rule="evenodd" d="M20 40C31.0457 40 40 31.0457 40 20C40 8.9543 31.0457 0 20 0C8.9543 0 0 8.9543 0 20C0 31.0457 8.9543 40 20 40ZM10.7884 14.2675C10.8409 14.3962 10.8606 14.5348 10.8459 14.672V24.6932C10.8781 24.8714 10.8654 25.0543 10.809 25.2271C10.7525 25.3999 10.6538 25.5577 10.5209 25.6878L8 28.5768V28.9576H15.1483V28.5767L12.6274 25.6878C12.4934 25.5578 12.3925 25.4007 12.3323 25.2283C12.2721 25.056 12.2543 24.873 12.2801 24.6932V16.0265L18.5545 28.9576H19.2829L24.6723 16.0265V26.3334C24.6723 26.6084 24.6723 26.6612 24.4818 26.8412L22.5435 28.6191V29H31.9551V28.6191L30.084 26.8836C30.003 26.8253 29.9403 26.7471 29.9028 26.6576C29.8653 26.5681 29.8544 26.4706 29.8711 26.3756V13.6244C29.8544 13.5294 29.8653 13.4319 29.9028 13.3424C29.9403 13.2529 30.003 13.1747 30.084 13.1164L32 11.3809V11H25.367L20.6385 22.1429L15.2605 11H8.30229V11.3808L10.5435 13.9312C10.6519 14.0236 10.7358 14.1388 10.7884 14.2675Z" fill="#8CC5F9"/>
<path fill-rule="evenodd" clip-rule="evenodd" d="M72 40C83.0457 40 92 31.0457 92 20C92 8.9543 83.0457 0 72 0C60.9543 0 52 8.9543 52 20C52 31.0457 60.9543 40 72 40ZM67.0529 8.07267C65.7754 8.13085 64.9024 8.33341 64.1401 8.63005C63.3505 8.93638 62.6822 9.34736 62.0143 10.0142C61.3464 10.681 60.9364 11.3504 60.6301 12.1399C60.3334 12.9027 60.1309 13.7752 60.0727 15.0526C60.0135 16.3321 60 16.7412 60 20C60 23.2588 60.0135 23.6679 60.0727 24.9474C60.1309 26.2249 60.3334 27.0973 60.6301 27.8601C60.9364 28.6491 61.3465 29.3193 62.0143 29.9858C62.6821 30.6524 63.3505 31.0628 64.1401 31.37C64.9039 31.6666 65.7754 31.8692 67.0529 31.9273C68.3331 31.9855 68.7415 32 72.0005 32C75.2594 32 75.6685 31.9865 76.948 31.9273C78.2257 31.8692 79.098 31.6666 79.8609 31.37C80.6499 31.0628 81.3188 30.6526 81.9867 29.9858C82.6546 29.319 83.0637 28.6491 83.3709 27.8601C83.6675 27.0973 83.8711 26.2248 83.9283 24.9474C83.9865 23.6669 84 23.2588 84 20C84 16.7412 83.9865 16.3321 83.9283 15.0526C83.8701 13.7751 83.6675 12.9022 83.3709 12.1399C83.0637 11.3509 82.6535 10.682 81.9867 10.0142C81.3199 9.3463 80.6499 8.93638 79.8619 8.63005C79.098 8.33341 78.2256 8.12989 76.949 8.07267C75.6695 8.0145 75.2604 8 72.0014 8C68.7425 8 68.3331 8.01354 67.0529 8.07267ZM67 20C67 17.2388 69.238 15 71.9993 15C74.7608 15 77 17.2391 77 20C77 22.7609 74.7608 25 71.9993 25C69.238 25 67 22.7612 67 20ZM71.9993 13C68.1331 13 65 16.1346 65 20C65 23.8654 68.1331 27 71.9993 27C75.8652 27 79 23.8657 79 20C79 16.1343 75.8652 13 71.9993 13ZM81 12.5C81 13.3284 80.3284 14 79.5 14C78.6716 14 78 13.3284 78 12.5C78 11.6716 78.6716 11 79.5 11C80.3284 11 81 11.6716 81 12.5Z" fill="#8CC5F9"/>
<path fill-rule="evenodd" clip-rule="evenodd" d="M124 40C135.046 40 144 31.0457 144 20C144 8.9543 135.046 0 124 0C112.954 0 104 8.9543 104 20C104 31.0457 112.954 40 124 40ZM136.877 31.216V31.217H131.912V23.416C131.912 21.557 131.874 19.173 129.325 19.173C126.738 19.173 126.342 21.193 126.342 23.282V31.216H121.372V15.193H126.145V17.378H126.215C126.878 16.119 128.502 14.791 130.922 14.791C135.956 14.791 136.883 18.108 136.883 22.414V31.216H136.877ZM113.396 15.1943H118.372V31.2173H113.396V15.1943ZM113 9.882C113 8.291 114.291 7 115.882 7C117.472 7 118.763 8.291 118.764 9.882C118.764 11.473 117.473 12.791 115.882 12.791C114.291 12.791 113 11.473 113 9.882Z" fill="#8CC5F9"/>
</svg>
